<svg width="32" height="32" viewBox="0 0 32 32" fill="none" xmlns="http://www.w3.org/2000/svg">
<rect width="32" height="32" rx="8" fill="#111111"/>
<g clip-path="url(#clip0_608_3704)">
<path d="M19.5321 19.4364C19.5321 20.2108 19.1933 22.8569 15.6437 22.8569C12.0941 22.8569 13.3526 22.2599 13.1429 22.2437L13.4978 19.4525C13.5624 19.5493 14.1109 20.2592 15.3049 20.2592C16.4988 20.2592 16.5472 19.9527 16.5472 19.0975C16.5472 18.2424 15.7889 17.9843 15.7889 16.9517C15.7889 15.919 16.5472 15.4511 16.5472 14.6444C16.5472 13.8377 15.7889 13.4827 15.7889 12.3372C15.7889 11.1917 16.5472 10.8528 16.5472 10.1429C16.5472 9.433 16.2729 9.14258 16.2729 9.14258H19.274C19.274 9.14258 19.516 9.46527 19.516 10.0461C19.516 10.9012 18.7577 11.5466 18.7577 12.2888C18.7577 13.031 19.516 13.5634 19.516 14.5315C19.516 15.4995 18.7738 16.2417 18.7738 16.9678C18.7738 17.6938 19.5482 18.2908 19.5482 19.4364" fill="white"/>
</g>
<defs>
<clipPath id="clip0_608_3704">
<rect width="6.85714" height="13.7143" fill="white" transform="translate(12.5713 9.14258)"/>
</clipPath>
</defs>
</svg>
